# xmcd CD database file
#
# Track frame offsets:
#	150
#	17249
#	38872
#	99621
#	124020
#	150062
#	244019
#	279918
#	293426
#
# Disc length: 4397 seconds
#
# Revision: 0
# Processed by: cddbd v1.5.2PL0 Copyright (c) Steve Scherf et al.
# Submitted via: CDex 1.70beta2
#
DISCID=67112b09
DTITLE=Tangerine Dream - Sea of Dreams Vol. 5
DYEAR=1998
DGENRE=New Age
TTITLE0=Interview London 1984
TTITLE1=Fassbinder Finale
TTITLE2=Vermillion Sands (suite)
TTITLE3=Mothers of Rain '86
TTITLE4=Vondelpark
TTITLE5=Nachtmusik (suite)
TTITLE6=Dolphin Riddle/Dolphin's Wake
TTITLE7=Love on a Real Train (Zoo Station)
TTITLE8=Finish Line
EXTD=YEAR: 1998
EXTT0=
EXTT1=
EXTT2=
EXTT3=
EXTT4=
EXTT5=
EXTT6=
EXTT7=
EXTT8=
PLAYORDER=
